<svg width="563" height="144" viewBox="0 0 563 144" fill="none" xmlns="http://www.w3.org/2000/svg">
<circle cx="152" cy="113" r="30" fill="white"/>
<circle cx="152" cy="113" r="30" fill="url(#paint0_linear_410_5)"/>
<circle cx="152" cy="113" r="30" stroke="black"/>
<circle cx="230" cy="91" r="40" fill="white"/>
<circle cx="230" cy="91" r="40" fill="url(#paint1_linear_410_5)"/>
<circle cx="230" cy="91" r="40" stroke="black"/>
<circle cx="534.5" cy="99.5" r="27.5" fill="white"/>
<circle cx="534.5" cy="99.5" r="27.5" fill="url(#paint2_linear_410_5)"/>
<circle cx="534.5" cy="99.5" r="27.5" stroke="black"/>
<circle cx="320" cy="54" r="50" fill="white"/>
<circle cx="320" cy="54" r="50" fill="url(#paint3_linear_410_5)"/>
<circle cx="320" cy="54" r="50" stroke="black"/>
<circle cx="398.5" cy="94.5" r="32.5" fill="white"/>
<circle cx="398.5" cy="94.5" r="32.5" fill="url(#paint4_linear_410_5)"/>
<circle cx="398.5" cy="94.5" r="32.5" stroke="black"/>
<circle cx="471.5" cy="69.5" r="37.5" fill="white"/>
<circle cx="471.5" cy="69.5" r="37.5" fill="url(#paint5_linear_410_5)"/>
<circle cx="471.5" cy="69.5" r="37.5" stroke="black"/>
<circle cx="63.5" cy="68.5" r="62.5" fill="white"/>
<circle cx="63.5" cy="68.5" r="62.5" fill="url(#paint6_linear_410_5)"/>
<circle cx="63.5" cy="68.5" r="62.5" stroke="black"/>
<path d="M32.5835 99.7095C31.5597 100.457 30.3838 100.83 29.0557 100.83C27.7552 100.83 26.7038 100.498 25.9014 99.834C25.1266 99.1423 24.7393 98.3537 24.7393 97.4683C24.7393 96.5828 24.8776 95.9326 25.1543 95.5176C25.9567 95.988 27.2295 96.2231 28.9727 96.2231C29.6644 96.2231 30.4253 95.8773 31.2554 95.1855C32.0854 94.4661 32.7495 93.4839 33.2476 92.2388V72.7734C33.2476 71.473 32.9709 70.5046 32.4175 69.8682C31.5874 68.8721 30.1763 67.8898 28.1841 66.9214C30.2039 65.953 31.4767 65.1506 32.0024 64.5142C32.8325 63.4627 33.2476 62.2868 33.2476 60.9863L33.2891 42.8906C32.625 41.1475 31.1585 40.2759 28.8896 40.2759C27.7275 40.2759 26.8698 40.5111 26.3164 40.9814C26.0397 40.6217 25.9014 40.1514 25.9014 39.5703C25.9014 38.9893 26.0259 38.4635 26.2749 37.9932C26.5239 37.5228 26.8698 37.1077 27.3125 36.748C28.2533 36.0286 29.5122 35.6689 31.0894 35.6689C32.6665 35.6689 33.967 36.1255 34.9907 37.0386C35.9038 36.1255 36.9691 35.6689 38.1865 35.6689C39.404 35.6689 40.4416 36.1808 41.2993 37.2046C42.3784 36.1808 43.333 35.6689 44.1631 35.6689C44.9932 35.6689 45.6296 35.7381 46.0723 35.8765C46.515 36.0148 46.9577 36.2777 47.4004 36.665C48.2858 37.3568 49.2127 38.7541 50.1812 40.8569L66.0771 73.8525L79.1924 41.521L80.3545 38.8232C81.0462 37.3014 81.6965 36.4022 82.3052 36.1255C82.9139 35.8211 83.6195 35.6689 84.4219 35.6689C85.252 35.6689 86.0959 35.9733 86.9536 36.582C88.005 35.9733 89.3747 35.6689 91.0625 35.6689C92.778 35.6689 94.2583 36.1255 95.5034 37.0386C96.6102 36.1255 97.7585 35.6689 98.9482 35.6689C100.166 35.6689 101.106 35.7658 101.771 35.9595C102.462 36.1532 103.057 36.416 103.555 36.748C104.607 37.4951 105.132 38.422 105.132 39.5288C105.132 40.0822 104.98 40.5664 104.676 40.9814C104.067 40.5111 103.292 40.2759 102.352 40.2759C100.249 40.2759 98.8237 41.2581 98.0767 43.2227V60.9863C98.0767 62.3421 98.3672 63.3521 98.9482 64.0161C99.8613 65.0952 101.259 66.0636 103.14 66.9214C101.12 67.9175 99.8337 68.7337 99.2803 69.3701C98.4779 70.3662 98.0767 71.5007 98.0767 72.7734V93.0688C99.0174 95.1717 100.719 96.2231 103.182 96.2231C104.122 96.2231 104.897 95.988 105.506 95.5176C105.81 95.9326 105.962 96.4168 105.962 96.9702C105.962 97.4959 105.796 97.994 105.464 98.4644C105.16 98.9347 104.731 99.3359 104.178 99.668C102.905 100.443 101.452 100.83 99.8198 100.83C98.1873 100.83 96.6655 100.387 95.2544 99.502C93.9539 100.387 92.4736 100.83 90.8135 100.83C89.0426 100.83 87.4793 100.387 86.1235 99.502C84.7124 100.387 83.3981 100.83 82.1807 100.83C80.9909 100.83 80.0086 100.719 79.2339 100.498C78.4591 100.304 77.7812 100.028 77.2002 99.668C76.0104 98.9486 75.4155 98.0493 75.4155 96.9702C75.4155 96.4168 75.5677 95.9326 75.8721 95.5176C76.4808 95.988 77.2555 96.2231 78.1963 96.2231C80.6589 96.2231 82.3605 95.1717 83.3013 93.0688V47.7051L67.1147 87.7979L65.3301 91.8652C64.4723 93.8021 63.8636 94.895 63.5039 95.144C63.1719 95.3931 62.8952 95.5176 62.6738 95.5176C61.9821 95.5176 61.4979 95.4484 61.2212 95.3101L39.0581 51.6064V92.1973C39.5838 93.4701 40.3032 94.4661 41.2163 95.1855C42.1294 95.8773 43.1532 96.2231 44.2876 96.2231C45.422 96.2231 46.3905 95.988 47.1929 95.5176C47.4972 96.0156 47.6494 96.7074 47.6494 97.5928C47.6494 98.4505 47.2205 99.2114 46.3628 99.8755C45.505 100.512 44.3983 100.83 43.0425 100.83C41.6867 100.83 40.4416 100.484 39.3071 99.7925C38.311 100.484 37.1628 100.83 35.8623 100.83C34.5895 100.83 33.4966 100.457 32.5835 99.7095ZM44.9102 48.0786C44.6335 48.4937 44.4951 49.0885 44.4951 49.8633C44.4951 52.1045 45.4359 55.0789 47.3174 58.7866L62.4248 88.96C62.6185 88.7109 62.7153 88.1852 62.7153 87.3828C62.7153 84.9756 61.5671 81.4478 59.2705 76.7993L44.9102 48.0786ZM87.2856 89.0015C88.6691 88.4757 89.43 86.6634 89.5684 83.5645C89.7344 80.4655 89.8174 76.1768 89.8174 70.6982C89.8174 65.2197 89.8035 61.5812 89.7759 59.7827C89.7759 57.9565 89.762 56.4901 89.7344 55.3833C89.6514 52.1183 89.3332 50.1538 88.7798 49.4897C88.2541 48.798 87.756 48.3415 87.2856 48.1201V89.0015ZM38.4771 89.541C38.4771 89.7624 38.4909 89.9284 38.5186 90.0391L38.4771 89.541ZM33.8286 89.541C33.8009 89.6517 33.7871 89.8177 33.7871 90.0391L33.8286 89.541Z" fill="black"/>
<path d="M313.677 84.8301C311.851 84.8301 310.232 84.3874 308.821 83.502C307.41 84.3874 306.095 84.8301 304.878 84.8301C303.688 84.8301 302.706 84.7194 301.931 84.498C301.156 84.3044 300.479 84.0277 299.897 83.668C298.708 82.9486 298.113 82.0493 298.113 80.9702C298.113 80.4168 298.265 79.9326 298.569 79.5176C299.178 79.988 299.953 80.2231 300.894 80.2231C303.356 80.2231 305.058 79.1717 305.999 77.0688V56.7734C305.999 55.5007 305.736 54.5599 305.21 53.9512C304.38 52.9274 302.955 51.9175 300.935 50.9214C302.817 50.0636 304.034 49.3027 304.587 48.6387C305.528 47.5596 305.999 46.3421 305.999 44.9863V27.4717C305.058 25.3411 303.356 24.2759 300.894 24.2759C299.953 24.2759 299.178 24.5111 298.569 24.9814C298.265 24.5664 298.113 24.096 298.113 23.5703C298.113 23.0169 298.265 22.505 298.569 22.0347C298.901 21.5643 299.344 21.1631 299.897 20.8311C301.17 20.0563 302.623 19.6689 304.255 19.6689C305.916 19.6689 307.437 20.1255 308.821 21.0386C310.26 20.1255 311.864 19.6689 313.635 19.6689C315.406 19.6689 317.011 20.1255 318.45 21.0386C319.999 20.1255 321.41 19.6689 322.683 19.6689C323.956 19.6689 324.98 19.7796 325.754 20.001C326.529 20.1947 327.207 20.4714 327.788 20.8311C328.978 21.5505 329.573 22.4497 329.573 23.5288C329.573 24.0822 329.421 24.5664 329.116 24.9814C328.507 24.5111 327.691 24.2759 326.667 24.2759C325.644 24.2759 324.606 24.5526 323.555 25.106C322.531 25.6317 321.77 26.4341 321.272 27.5132V44.9863C321.272 46.3421 321.562 47.3521 322.144 48.0161C323.057 49.0952 324.454 50.0636 326.335 50.9214C324.316 51.9175 323.029 52.7337 322.476 53.3701C321.673 54.3662 321.272 55.5007 321.272 56.7734V74.9106C323.098 77.8159 325.381 79.2686 328.12 79.2686C334.899 79.2686 339.257 76.391 341.194 70.6357C342.052 68.0902 342.48 65.766 342.48 63.6631C342.48 61.5326 342.19 60.1076 341.609 59.3882C342.245 58.8625 342.896 58.5996 343.56 58.5996C344.251 58.5996 344.888 58.738 345.469 59.0146C346.05 59.2913 346.576 59.7064 347.046 60.2598C348.014 61.3942 348.499 62.7362 348.499 64.2856C348.499 65.8351 348.374 67.0249 348.125 67.855C349.398 68.9064 350.034 70.3867 350.034 72.2959C350.034 74.2051 349.495 75.7546 348.416 76.9443C349.329 78.1064 349.785 79.1579 349.785 80.0986C349.785 81.0394 349.647 81.8556 349.37 82.5474C349.121 83.2114 348.761 83.8063 348.291 84.332C347.24 85.4111 345.981 85.9507 344.514 85.9507C343.795 85.9507 343.131 85.7985 342.522 85.4941C342.633 84.8854 342.688 84.2767 342.688 83.668C342.688 82.3952 342.107 81.7588 340.945 81.7588C340.087 81.7588 338.897 82.1047 337.375 82.7964C334.443 84.1522 331.095 84.8301 327.332 84.8301C323.596 84.8301 320.677 84.3459 318.574 83.3774C317.135 84.3459 315.503 84.8301 313.677 84.8301ZM309.983 73.0015C311.366 72.4757 312.127 70.6634 312.266 67.5645C312.432 64.4655 312.515 60.1768 312.515 54.6982C312.515 49.2197 312.501 45.5812 312.473 43.7827C312.473 41.9565 312.459 40.4901 312.432 39.3833C312.349 36.1183 312.03 34.1538 311.477 33.4897C310.951 32.798 310.453 32.3415 309.983 32.1201C309.983 41.749 309.817 47.2275 309.485 48.5557C309.097 49.6624 308.157 50.451 306.663 50.9214C308.323 51.5024 309.264 52.208 309.485 53.0381C309.817 54.3662 309.983 59.2222 309.983 67.606V73.0015Z" fill="black"/>
<path d="M455.98 72.6C455.98 70.8 456.52 69.1 457.6 67.5C458.68 65.86 459.96 64.44 461.44 63.24C462.96 62 464.48 61.02 466 60.3C467.56 59.58 468.82 59.22 469.78 59.22C471.38 59.22 472.68 59.34 473.68 59.58C474.68 59.78 475.48 60.02 476.08 60.3C476.72 60.58 477.22 60.86 477.58 61.14C477.94 61.42 478.28 61.62 478.6 61.74C479.16 60.66 479.48 59.5 479.56 58.26C479.68 56.98 479.74 55.62 479.74 54.18C479.74 53.7 479.72 53.2 479.68 52.68C479.68 52.12 479.66 51.6 479.62 51.12C479.58 50.64 479.5 50.26 479.38 49.98C479.3 49.66 479.2 49.5 479.08 49.5C478.36 49.5 477.7 49.66 477.1 49.98C476.54 50.3 475.9 50.46 475.18 50.46C474.62 50.46 474.22 50.32 473.98 50.04C473.78 49.76 473.68 49.46 473.68 49.14C473.68 48.74 473.82 48.36 474.1 48C474.38 47.64 474.7 47.42 475.06 47.34C475.34 47.3 476.02 47.14 477.1 46.86C478.18 46.58 479.34 46.26 480.58 45.9C481.82 45.54 482.98 45.22 484.06 44.94C485.18 44.62 485.88 44.4 486.16 44.28C486.24 44.28 486.36 44.26 486.52 44.22C486.72 44.14 486.84 44.08 486.88 44.04C487.16 43.88 487.38 43.74 487.54 43.62C487.74 43.46 487.92 43.36 488.08 43.32C488.24 43.24 488.4 43.18 488.56 43.14C488.72 43.1 488.94 43.08 489.22 43.08C490.02 43.08 490.52 43.22 490.72 43.5C490.92 43.74 491.02 44.14 491.02 44.7C491.02 45.3 490.88 45.78 490.6 46.14C490.32 46.5 490.16 46.92 490.12 47.4C489.88 49.32 489.62 51.34 489.34 53.46C489.1 55.58 488.84 57.74 488.56 59.94C488.28 62.14 488.02 64.34 487.78 66.54C487.58 68.7 487.42 70.78 487.3 72.78C487.26 73.54 487.2 74.22 487.12 74.82C487.04 75.42 486.96 76.02 486.88 76.62C486.8 77.18 486.72 77.76 486.64 78.36C486.6 78.96 486.58 79.62 486.58 80.34C486.58 80.98 486.66 81.64 486.82 82.32C487.98 82.24 488.98 81.92 489.82 81.36C490.66 80.8 491.48 80.12 492.28 79.32C493.24 79.4 493.72 79.88 493.72 80.76C493.72 81.6 493.44 82.32 492.88 82.92C492.32 83.48 491.64 83.94 490.84 84.3C490.04 84.66 489.2 84.92 488.32 85.08C487.48 85.24 486.74 85.32 486.1 85.32C485.3 85.32 484.56 85.14 483.88 84.78C483.24 84.42 482.64 83.98 482.08 83.46C481.56 82.9 481.08 82.28 480.64 81.6C480.24 80.92 479.9 80.28 479.62 79.68C478.1 81.6 476.18 83.18 473.86 84.42C471.54 85.7 469.04 86.34 466.36 86.34C464.44 86.34 462.8 85.98 461.44 85.26C460.12 84.54 459.06 83.58 458.26 82.38C457.46 81.14 456.88 79.68 456.52 78C456.16 76.32 455.98 74.52 455.98 72.6ZM458.98 72.72C458.98 74.84 459.2 76.6 459.64 78C460.08 79.36 460.66 80.44 461.38 81.24C462.1 82.04 462.9 82.6 463.78 82.92C464.66 83.24 465.54 83.4 466.42 83.4C466.5 83.4 466.56 83.4 466.6 83.4C466.64 83.36 466.68 83.34 466.72 83.34C466.08 82.86 465.54 82.2 465.1 81.36C464.66 80.52 464.3 79.6 464.02 78.6C463.74 77.56 463.54 76.5 463.42 75.42C463.3 74.3 463.24 73.24 463.24 72.24C463.32 71.24 463.44 70.22 463.6 69.18C463.76 68.26 463.96 67.28 464.2 66.24C464.48 65.16 464.84 64.1 465.28 63.06C462.96 64.58 461.32 66.22 460.36 67.98C459.44 69.74 458.98 71.32 458.98 72.72ZM465.94 70.56C465.94 71.56 466 72.76 466.12 74.16C466.28 75.52 466.54 76.84 466.9 78.12C467.3 79.36 467.82 80.42 468.46 81.3C469.14 82.18 470 82.62 471.04 82.62C472.16 82.62 473.14 82.34 473.98 81.78C474.86 81.18 475.6 80.44 476.2 79.56C476.8 78.64 477.3 77.62 477.7 76.5C478.1 75.38 478.42 74.28 478.66 73.2C478.9 72.08 479.06 71.04 479.14 70.08C479.22 69.12 479.26 68.34 479.26 67.74C479.26 67.22 479.1 66.64 478.78 66C478.46 65.36 478.02 64.78 477.46 64.26C476.9 63.7 476.24 63.24 475.48 62.88C474.76 62.52 473.98 62.34 473.14 62.34C472.1 62.34 471.14 62.56 470.26 63C469.38 63.4 468.62 63.98 467.98 64.74C467.34 65.46 466.84 66.32 466.48 67.32C466.12 68.32 465.94 69.4 465.94 70.56ZM482.08 48.96C482.08 49.04 482.08 49.26 482.08 49.62C482.12 49.94 482.14 50.3 482.14 50.7C482.14 51.06 482.14 51.42 482.14 51.78C482.18 52.1 482.2 52.3 482.2 52.38C482.2 52.62 482.16 53.3 482.08 54.42C482.04 55.54 481.98 56.76 481.9 58.08C481.82 59.4 481.74 60.66 481.66 61.86C481.62 63.02 481.6 63.76 481.6 64.08C481.6 65.24 481.62 66.4 481.66 67.56C481.74 68.72 481.78 69.94 481.78 71.22C481.78 71.7 481.74 72.32 481.66 73.08C481.62 73.8 481.6 74.72 481.6 75.84C481.6 76.4 481.66 77.02 481.78 77.7C481.9 78.38 482.08 79.04 482.32 79.68C482.56 80.28 482.84 80.82 483.16 81.3C483.52 81.78 483.92 82.08 484.36 82.2C484.36 81.44 484.4 80.5 484.48 79.38C484.56 78.26 484.64 77.1 484.72 75.9C484.84 74.7 484.94 73.52 485.02 72.36C485.14 71.2 485.26 70.2 485.38 69.36C485.82 65.76 486.18 62.08 486.46 58.32C486.74 54.52 486.98 50.98 487.18 47.7C486.94 47.7 486.54 47.72 485.98 47.76C485.42 47.76 484.86 47.8 484.3 47.88C483.74 47.96 483.24 48.08 482.8 48.24C482.36 48.36 482.14 48.54 482.14 48.78L482.08 48.96Z" fill="black"/>
<path d="M532.5 90.85C532.433 91.3833 532.383 91.9 532.35 92.4C532.35 92.9 532.35 93.4833 532.35 94.15C532.35 94.8167 532.367 95.4833 532.4 96.15C532.433 96.8167 532.483 97.4167 532.55 97.95C533.183 97.7167 533.833 97.5167 534.5 97.35C535.2 97.1833 535.967 97.0333 536.8 96.9C537.667 96.7667 538.633 96.65 539.7 96.55C540.767 96.45 542.017 96.35 543.45 96.25C543.35 97.4167 543.3 99.1167 543.3 101.35C543.3 103.25 543.333 104.95 543.4 106.45C543.467 107.917 543.583 109.033 543.75 109.8C542.717 109.8 541.667 109.867 540.6 110C539.533 110.133 538.517 110.317 537.55 110.55C536.583 110.783 535.683 111.067 534.85 111.4C534.017 111.733 533.317 112.1 532.75 112.5C532.35 112.133 531.9 111.817 531.4 111.55C530.933 111.283 530.367 111.067 529.7 110.9C529.033 110.7 528.25 110.55 527.35 110.45C526.45 110.317 525.383 110.217 524.15 110.15C524.217 109.117 524.417 108.067 524.75 107C525.117 105.9 525.567 105.017 526.1 104.35C526.867 104.35 528.067 104.633 529.7 105.2C531.333 105.767 533.5 106.65 536.2 107.85C536.4 106.783 536.55 105.817 536.65 104.95C536.75 104.05 536.8 103.117 536.8 102.15C536.8 101.55 536.8 101.117 536.8 100.85C536.8 100.583 536.783 100.333 536.75 100.1C535.283 100.233 533.583 100.483 531.65 100.85C529.717 101.183 527.9 101.583 526.2 102.05C526.333 100.617 526.417 99.5167 526.45 98.75C526.483 97.95 526.5 97.2333 526.5 96.6C526.5 95.1 526.417 93.7833 526.25 92.65C526.117 91.5167 525.883 90.4667 525.55 89.5C526.817 89.5 528.183 89.2833 529.65 88.85C531.117 88.4167 532.95 87.7333 535.15 86.8C537.25 87.8667 540.383 88.55 544.55 88.85C543.95 90.2833 543.267 91.3333 542.5 92C541.733 92.6333 540.783 92.95 539.65 92.95C539.15 92.95 538.583 92.9 537.95 92.8C537.317 92.7 536.667 92.55 536 92.35C535.367 92.15 534.733 91.9333 534.1 91.7C533.5 91.4333 532.967 91.15 532.5 90.85Z" fill="black"/>
<path d="M247.787 96.832L247.729 97.2715L247.377 97.4473C245.6 98.4043 244.076 99.5273 242.807 100.816C241.537 102.086 240.482 103.541 239.643 105.182L239.584 105.416L239.408 105.475C238.627 105.943 237.826 106.51 237.006 107.174C236.186 107.838 235.404 108.57 234.662 109.371C233.92 110.152 233.236 110.982 232.611 111.861C231.986 112.74 231.469 113.629 231.059 114.527L230.941 114.791L230.648 114.908C230.609 114.947 230.443 115.006 230.15 115.084C229.877 115.162 229.516 115.201 229.066 115.201C228.617 115.201 228.09 115.113 227.484 114.938C226.898 114.762 226.273 114.449 225.609 114C225.297 114.059 224.975 114.107 224.643 114.146C224.33 114.205 223.988 114.234 223.617 114.234C222.465 114.234 221.508 114.078 220.746 113.766C220.004 113.453 219.408 113.111 218.959 112.74C218.529 112.35 218.227 111.998 218.051 111.686C217.875 111.354 217.787 111.168 217.787 111.129L217.67 110.895L217.787 110.572C218.236 109.498 218.568 108.395 218.783 107.262C218.998 106.129 219.105 104.977 219.105 103.805C219.105 102.984 219.057 102.154 218.959 101.314C218.881 100.475 218.734 99.6055 218.52 98.707V98.3262C218.754 97.3691 218.939 96.4316 219.076 95.5137C219.232 94.5762 219.311 93.6387 219.311 92.7012C219.311 91.666 219.223 90.6504 219.047 89.6543C218.871 88.6582 218.637 87.6719 218.344 86.6953L218.285 86.4023L218.402 86.168C218.832 85.1133 219.145 84.0586 219.34 83.0039C219.555 81.9297 219.662 80.8652 219.662 79.8105C219.662 78.9512 219.594 78.1016 219.457 77.2617C219.34 76.4023 219.145 75.5332 218.871 74.6543L218.754 74.2734L218.988 73.9805C219.008 73.9609 219.125 73.8438 219.34 73.6289C219.555 73.3945 219.877 73.1504 220.307 72.8965C220.756 72.623 221.312 72.3887 221.977 72.1934C222.641 71.9785 223.432 71.8711 224.35 71.8711H224.936C225.658 71.3047 226.332 70.9336 226.957 70.7578C227.602 70.582 228.168 70.4941 228.656 70.4941C229.086 70.4941 229.428 70.5234 229.682 70.582C229.955 70.6406 230.111 70.6699 230.15 70.6699L230.414 70.7871L230.531 71.1094C230.883 71.8516 231.342 72.6035 231.908 73.3652C232.475 74.1074 233.1 74.8301 233.783 75.5332C234.467 76.2168 235.189 76.8711 235.951 77.4961C236.732 78.1211 237.504 78.6875 238.266 79.1953L238.793 79.4297L239.027 79.5469L239.174 79.8105C240.072 81.6465 241.186 83.2383 242.514 84.5859C243.842 85.9336 245.424 87.0762 247.26 88.0137L247.611 88.1309L247.67 88.5703C247.67 88.6094 247.68 88.6582 247.699 88.7168C247.699 88.7559 247.699 88.8145 247.699 88.8926C247.719 88.9512 247.729 89.0195 247.729 89.0977C247.729 89.4688 247.65 89.9766 247.494 90.6211C247.338 91.2656 247.016 91.959 246.527 92.7012C246.82 93.1113 247.045 93.5117 247.201 93.9023C247.377 94.293 247.504 94.6641 247.582 95.0156C247.68 95.3477 247.738 95.6504 247.758 95.9238C247.777 96.1973 247.787 96.4023 247.787 96.5391V96.832ZM222.357 79.1953L222.24 78.9609C222.201 78.9219 222.152 78.7754 222.094 78.5215C222.035 78.2676 222.006 77.916 222.006 77.4668C222.006 76.959 222.094 76.3633 222.27 75.6797C222.445 74.9766 222.836 74.2344 223.441 73.4531C222.621 73.5508 221.967 73.7266 221.479 73.9805C221.01 74.2344 220.668 74.459 220.453 74.6543C220.688 75.5332 220.863 76.3926 220.98 77.2324C221.098 78.0723 221.156 78.9316 221.156 79.8105C221.156 81.666 220.854 83.502 220.248 85.3184C220.736 85.1621 221.205 85.0645 221.654 85.0254C222.104 84.9863 222.523 84.9668 222.914 84.9668C223.969 84.9668 224.76 85.0352 225.287 85.1719C225.814 85.2891 226.186 85.4258 226.4 85.582C226.654 85.7578 226.771 85.9531 226.752 86.168C226.752 86.3438 226.684 86.4902 226.547 86.6074C226.43 86.7051 226.293 86.7539 226.137 86.7539C226.098 86.7539 226.039 86.7344 225.961 86.6953C225.902 86.6367 225.775 86.5781 225.58 86.5195C225.385 86.4609 225.111 86.4121 224.76 86.373C224.408 86.3145 223.93 86.2852 223.324 86.2852C222.836 86.2852 222.309 86.334 221.742 86.4316C221.176 86.5293 220.58 86.6953 219.955 86.9297C220.229 87.8672 220.434 88.8047 220.57 89.7422C220.727 90.6797 220.805 91.6465 220.805 92.6426C220.805 93.4629 220.746 94.3027 220.629 95.1621C220.531 96.002 220.385 96.8418 220.189 97.6816C220.502 97.6426 220.795 97.6133 221.068 97.5938C221.342 97.5742 221.635 97.5645 221.947 97.5645C222.396 97.5645 222.914 97.5938 223.5 97.6523C224.086 97.6914 224.643 97.7598 225.17 97.8574C225.697 97.9551 226.137 98.082 226.488 98.2383C226.859 98.375 227.045 98.5508 227.045 98.7656C227.045 98.9805 226.957 99.1367 226.781 99.2344C226.605 99.3125 226.43 99.3516 226.254 99.3516C225.805 99.2344 225.287 99.1367 224.701 99.0586C224.135 98.9805 223.539 98.9414 222.914 98.9414C222.465 98.9414 221.986 98.9707 221.479 99.0293C220.99 99.0684 220.521 99.1172 220.072 99.1758C220.268 99.9961 220.395 100.797 220.453 101.578C220.531 102.359 220.57 103.121 220.57 103.863C220.57 106.246 220.15 108.561 219.311 110.807C219.389 110.943 219.516 111.129 219.691 111.363C219.887 111.578 220.15 111.793 220.482 112.008C220.834 112.203 221.264 112.379 221.771 112.535C222.279 112.672 222.895 112.74 223.617 112.74C224.34 112.74 224.965 112.672 225.492 112.535C226.02 112.398 226.459 112.242 226.811 112.066C227.182 111.871 227.465 111.676 227.66 111.48C227.875 111.266 228.031 111.09 228.129 110.953C227.797 109.918 227.543 108.902 227.367 107.906C227.191 106.91 227.104 105.904 227.104 104.889C227.104 103.795 227.191 102.721 227.367 101.666C227.562 100.611 227.855 99.5469 228.246 98.4727C227.914 97.4766 227.67 96.4805 227.514 95.4844C227.357 94.4883 227.279 93.4629 227.279 92.4082C227.279 91.4121 227.348 90.3965 227.484 89.3613C227.641 88.3066 227.875 87.2422 228.188 86.168C227.992 85.6211 227.846 85.0645 227.748 84.498C227.65 83.9316 227.572 83.3652 227.514 82.7988C226.791 82.1152 226.029 81.4707 225.229 80.8652C224.428 80.2598 223.568 79.7422 222.65 79.3125L222.357 79.1953ZM246.293 89.0977C244.613 88.2188 243.139 87.1738 241.869 85.9629C240.6 84.7324 239.496 83.3164 238.559 81.7148C238.207 82.4766 237.787 83.1211 237.299 83.6484C236.83 84.1758 236.371 84.6055 235.922 84.9375C235.492 85.25 235.121 85.4746 234.809 85.6113C234.496 85.748 234.33 85.8262 234.311 85.8457C234.271 85.9043 234.203 85.9336 234.105 85.9336C233.93 85.9336 233.783 85.8652 233.666 85.7285C233.568 85.5723 233.52 85.4355 233.52 85.3184C233.52 85.0645 233.646 84.8887 233.9 84.791C234.154 84.6934 234.477 84.5176 234.867 84.2637C235.277 84.0098 235.717 83.5996 236.186 83.0332C236.654 82.4668 237.104 81.5879 237.533 80.3965C237.475 80.3965 237.426 80.3867 237.387 80.3672C237.348 80.3477 237.299 80.3184 237.24 80.2793C236.479 79.752 235.707 79.166 234.926 78.5215C234.164 77.877 233.432 77.2031 232.729 76.5C232.045 75.7773 231.41 75.0352 230.824 74.2734C230.258 73.4922 229.779 72.7109 229.389 71.9297C229.291 71.9297 229.193 71.9199 229.096 71.9004C228.998 71.8809 228.871 71.8711 228.715 71.8711C228.324 71.8711 227.807 71.9883 227.162 72.2227C226.518 72.457 225.834 72.9648 225.111 73.7461C224.389 74.5273 223.93 75.25 223.734 75.9141C223.539 76.5586 223.441 77.0762 223.441 77.4668C223.441 77.623 223.441 77.7598 223.441 77.877C223.441 77.9746 223.461 78.0723 223.5 78.1699C224.418 78.6191 225.326 79.1758 226.225 79.8398C227.123 80.4844 227.973 81.1973 228.773 81.9785C229.594 82.7402 230.336 83.5312 231 84.3516C231.684 85.1719 232.26 85.9727 232.729 86.7539C236.029 88.5117 238.715 91.1289 240.785 94.6055C240.961 94.6055 241.186 94.5859 241.459 94.5469C241.752 94.4883 242.074 94.4004 242.426 94.2832C242.777 94.1465 243.139 93.9609 243.51 93.7266C243.9 93.4727 244.271 93.1504 244.623 92.7598C244.975 92.3691 245.258 91.9883 245.473 91.6172C245.688 91.2461 245.854 90.9043 245.971 90.5918C246.088 90.2598 246.166 89.9668 246.205 89.7129C246.244 89.459 246.273 89.2539 246.293 89.0977ZM240.727 96.1289C240.57 96.1289 240.463 96.1191 240.404 96.0996C240.346 96.0996 240.307 96.0898 240.287 96.0703H239.936L239.701 95.6895C239.545 95.416 239.379 95.1426 239.203 94.8691C239.027 94.5762 238.852 94.3125 238.676 94.0781C237.25 95.8945 235.512 97.3984 233.461 98.5898C234.223 98.9414 234.857 99.3613 235.365 99.8496C235.893 100.318 236.312 100.777 236.625 101.227C236.957 101.656 237.191 102.027 237.328 102.34C237.465 102.652 237.533 102.818 237.533 102.838C237.533 102.877 237.543 102.916 237.562 102.955C237.582 102.994 237.592 103.033 237.592 103.072C237.592 103.229 237.533 103.375 237.416 103.512C237.318 103.629 237.182 103.688 237.006 103.688C236.83 103.688 236.693 103.629 236.596 103.512C236.498 103.395 236.4 103.238 236.303 103.043C236.225 102.828 236.107 102.584 235.951 102.311C235.795 102.037 235.561 101.754 235.248 101.461C234.955 101.168 234.555 100.865 234.047 100.553C233.559 100.24 232.924 99.9473 232.143 99.6738L231.967 99.9082C231.479 100.592 230.951 101.285 230.385 101.988C229.818 102.691 229.223 103.375 228.598 104.039V104.83C228.598 105.826 228.676 106.812 228.832 107.789C228.988 108.766 229.252 109.752 229.623 110.748L229.74 111.07L229.623 111.305C229.604 111.344 229.555 111.432 229.477 111.568C229.398 111.705 229.271 111.881 229.096 112.096C228.92 112.291 228.695 112.506 228.422 112.74C228.168 112.975 227.846 113.199 227.455 113.414C227.787 113.531 228.1 113.609 228.393 113.648C228.686 113.688 228.939 113.707 229.154 113.707C229.311 113.707 229.438 113.707 229.535 113.707C229.652 113.707 229.76 113.688 229.857 113.648C230.268 112.75 230.795 111.852 231.439 110.953C232.104 110.055 232.816 109.205 233.578 108.404C234.34 107.584 235.141 106.832 235.98 106.148C236.82 105.465 237.641 104.879 238.441 104.391C240.18 101.09 242.816 98.4141 246.352 96.3633C246.312 96.1289 246.244 95.7871 246.146 95.3379C246.068 94.8887 245.863 94.4102 245.531 93.9023C245.062 94.3711 244.584 94.752 244.096 95.0449C243.627 95.3379 243.168 95.5723 242.719 95.748C242.289 95.9043 241.898 96.0117 241.547 96.0703C241.195 96.1094 240.922 96.1289 240.727 96.1289ZM229.799 98.4727L229.682 98.707C229.525 99.1172 229.389 99.5371 229.271 99.9668C229.154 100.377 229.047 100.797 228.949 101.227C229.379 100.66 229.799 100.123 230.209 99.6152C230.639 99.1074 230.961 98.707 231.176 98.4141L231.293 98.1504L231.527 98.0332C234.047 96.7637 236.146 95.0449 237.826 92.877C237.006 91.8223 236.107 90.8945 235.131 90.0938C234.174 89.2734 233.119 88.5605 231.967 87.9551L231.674 87.6621C231.303 87.1738 230.922 86.6855 230.531 86.1973C230.141 85.6895 229.74 85.2012 229.33 84.7324C229.369 84.9473 229.408 85.1523 229.447 85.3477C229.506 85.5234 229.564 85.7188 229.623 85.9336V86.3438C229.018 88.4727 228.715 90.5137 228.715 92.4668C228.715 93.4629 228.793 94.4395 228.949 95.3965C229.105 96.334 229.35 97.2715 229.682 98.209L229.799 98.4727Z" fill="black"/>
<path d="M416.318 100.707C416.436 101.352 416.494 101.947 416.494 102.494C416.494 103.1 416.436 103.646 416.318 104.135C416.201 104.604 416.064 105.014 415.908 105.365C415.771 105.697 415.635 105.971 415.498 106.186C415.381 106.381 415.312 106.488 415.293 106.508L415.059 106.83L414.648 106.771C414.375 106.732 414.102 106.713 413.828 106.713C413.555 106.713 413.281 106.713 413.008 106.713C413.281 107.67 413.623 108.598 414.033 109.496C414.443 110.395 414.902 111.264 415.41 112.104L415.732 112.572L415.352 113.012C415.332 113.031 415.225 113.139 415.029 113.334C414.854 113.51 414.58 113.725 414.209 113.979C413.838 114.213 413.359 114.467 412.773 114.74C412.207 115.014 411.533 115.238 410.752 115.414C410.381 115.512 410.01 115.59 409.639 115.648C409.287 115.688 408.936 115.707 408.584 115.707C408.076 115.707 407.607 115.668 407.178 115.59C406.768 115.512 406.416 115.424 406.123 115.326C405.83 115.209 405.596 115.111 405.42 115.033C405.264 114.955 405.176 114.916 405.156 114.916L404.746 114.682L404.805 114.213C404.805 113.959 404.814 113.715 404.834 113.48C404.854 113.246 404.863 113.002 404.863 112.748C404.863 111.4 404.746 110.062 404.512 108.734C404.434 108.812 404.365 108.852 404.307 108.852L403.896 108.969C402.666 108.969 401.406 109.047 400.117 109.203C398.828 109.359 397.549 109.643 396.279 110.053V110.961C396.279 111.801 396.338 112.641 396.455 113.48L396.514 113.773L396.338 114.008C396.318 114.027 396.221 114.135 396.045 114.33C395.869 114.525 395.596 114.74 395.225 114.975C394.854 115.209 394.385 115.424 393.818 115.619C393.252 115.795 392.568 115.883 391.768 115.883C390.205 115.883 388.965 115.658 388.047 115.209C387.148 114.76 386.455 114.252 385.967 113.686C385.4 113.041 385.02 112.309 384.824 111.488L384.766 111.254L384.941 111.02C385.938 109.496 386.67 107.875 387.139 106.156C387.627 104.418 387.871 102.543 387.871 100.531V99.5059L387.988 99.1543C388.75 97.6309 389.307 96.1172 389.658 94.6133C390.029 93.0898 390.215 91.5566 390.215 90.0137C390.215 89.623 390.205 89.2324 390.186 88.8418C390.166 88.4512 390.137 88.0605 390.098 87.6699L390.039 87.377L390.215 87.1426C392.09 84.2715 393.027 81.166 393.027 77.8262C393.027 77.5332 393.018 77.2305 392.998 76.918C392.979 76.5859 392.949 76.2539 392.91 75.9219V75.5703L393.174 75.3066C393.193 75.2871 393.291 75.2188 393.467 75.1016C393.662 74.9648 393.926 74.8281 394.258 74.6914C394.59 74.5352 394.99 74.3984 395.459 74.2812C395.947 74.1641 396.504 74.1055 397.129 74.1055C398.34 74.1055 399.365 74.291 400.205 74.6621C401.064 75.0332 401.758 75.4434 402.285 75.8926C402.812 76.3418 403.193 76.752 403.428 77.123C403.682 77.4941 403.818 77.6895 403.838 77.709L404.014 78.0898L403.838 78.4414C403.76 78.5195 403.721 78.5781 403.721 78.6172H404.131C404.99 78.6172 405.664 78.6758 406.152 78.793C406.66 78.9102 406.934 78.9688 406.973 78.9688L407.324 79.2324L407.266 79.6426C407.227 79.877 407.207 80.1113 407.207 80.3457C407.207 80.5605 407.207 80.7852 407.207 81.0195C407.207 84.4961 408.027 87.6797 409.668 90.5703L409.785 90.9219V91.7129C409.785 92.7285 409.824 93.7051 409.902 94.6426C409.98 95.5605 410.137 96.4395 410.371 97.2793C410.762 97.123 411.143 96.957 411.514 96.7812C411.885 96.6055 412.246 96.4102 412.598 96.1953L412.891 96.0195L413.271 96.1367C413.291 96.1562 413.418 96.2441 413.652 96.4004C413.906 96.5566 414.189 96.8105 414.502 97.1621C414.834 97.5137 415.166 97.9824 415.498 98.5684C415.85 99.1348 416.123 99.8477 416.318 100.707ZM402.344 78.0898C402.227 77.9141 402.031 77.6895 401.758 77.416C401.484 77.1426 401.133 76.8789 400.703 76.625C400.293 76.3516 399.785 76.1172 399.18 75.9219C398.594 75.7266 397.91 75.6289 397.129 75.6289C396.445 75.6289 395.879 75.6973 395.43 75.834C394.98 75.9707 394.648 76.0977 394.434 76.2148C394.473 76.4883 394.492 76.7617 394.492 77.0352C394.492 77.2891 394.492 77.5527 394.492 77.8262C394.492 79.4277 394.297 80.9512 393.906 82.3965C393.516 83.8418 392.949 85.2676 392.207 86.6738C392.363 86.6738 392.51 86.6641 392.646 86.6445C392.783 86.6055 392.93 86.5859 393.086 86.5859C393.848 86.5859 394.531 86.6641 395.137 86.8203C395.742 86.9766 396.26 87.1523 396.689 87.3477C397.139 87.543 397.49 87.7285 397.744 87.9043C397.998 88.0605 398.135 88.1484 398.154 88.168C398.35 88.3047 398.447 88.4609 398.447 88.6367C398.447 88.8516 398.369 89.0078 398.213 89.1055C398.076 89.2031 397.93 89.252 397.773 89.252C397.637 89.252 397.539 89.2031 397.48 89.1055C397.461 89.0859 397.344 89.0273 397.129 88.9297C396.934 88.8125 396.65 88.6953 396.279 88.5781C395.928 88.4414 395.498 88.3242 394.99 88.2266C394.502 88.1094 393.955 88.0508 393.35 88.0508C392.822 88.0508 392.256 88.1094 391.65 88.2266C391.65 88.5 391.66 88.7637 391.68 89.0176C391.699 89.252 391.709 89.5059 391.709 89.7793C391.709 92.8652 391.055 95.8633 389.746 98.7734C390.293 98.8125 390.938 98.9102 391.68 99.0664C392.422 99.2031 393.135 99.3789 393.818 99.5938C394.502 99.8086 395.078 100.053 395.547 100.326C396.035 100.58 396.279 100.844 396.279 101.117C396.279 101.293 396.221 101.43 396.104 101.527C395.986 101.625 395.85 101.674 395.693 101.674C395.615 101.674 395.557 101.664 395.518 101.645C395.479 101.605 395.43 101.586 395.371 101.586C394.648 101.195 393.74 100.883 392.646 100.648C391.553 100.395 390.469 100.268 389.395 100.268C389.395 102.455 389.141 104.467 388.633 106.303C388.145 108.119 387.373 109.867 386.318 111.547C386.377 111.684 386.504 111.918 386.699 112.25C386.895 112.562 387.197 112.885 387.607 113.217C388.037 113.529 388.584 113.812 389.248 114.066C389.932 114.32 390.771 114.447 391.768 114.447C392.705 114.447 393.428 114.311 393.936 114.037C394.443 113.764 394.785 113.539 394.961 113.363C394.902 112.973 394.863 112.582 394.844 112.191C394.844 111.801 394.844 111.41 394.844 111.02C394.844 109.262 395.059 107.572 395.488 105.951C395.918 104.311 396.582 102.699 397.48 101.117C397.363 100.336 397.305 99.5547 397.305 98.7734C397.305 97.1523 397.51 95.541 397.92 93.9395C398.35 92.3379 398.984 90.6875 399.824 88.9883C399.785 88.7539 399.766 88.5195 399.766 88.2852C399.766 88.0508 399.766 87.8066 399.766 87.5527C399.766 85.9316 399.971 84.3301 400.381 82.748C400.811 81.166 401.465 79.6133 402.344 78.0898ZM403.779 107.533C405.127 106.791 406.543 106.225 408.027 105.834C409.531 105.443 411.094 105.248 412.715 105.248C412.988 105.248 413.262 105.248 413.535 105.248C413.809 105.248 414.102 105.268 414.414 105.307C414.531 105.092 414.678 104.75 414.854 104.281C415.029 103.793 415.117 103.217 415.117 102.553C415.117 101.83 415.029 101.186 414.854 100.619C414.678 100.033 414.463 99.5352 414.209 99.125C413.975 98.7148 413.73 98.3926 413.477 98.1582C413.223 97.9043 413.027 97.7285 412.891 97.6309C410.117 99.1934 407.236 99.9746 404.248 99.9746C404.014 99.9746 403.789 99.9746 403.574 99.9746C403.359 99.9746 403.145 99.9551 402.93 99.916C403.379 100.756 403.682 101.557 403.838 102.318C403.994 103.061 404.072 103.705 404.072 104.252C404.072 104.721 404.053 105.092 404.014 105.365C403.975 105.619 403.916 105.814 403.838 105.951C403.779 106.068 403.701 106.146 403.604 106.186C403.506 106.205 403.408 106.215 403.311 106.215C403.154 106.215 403.027 106.166 402.93 106.068C402.852 105.971 402.812 105.844 402.812 105.688V104.896C402.812 104.662 402.793 104.369 402.754 104.018C402.734 103.646 402.666 103.256 402.549 102.846C402.451 102.416 402.305 101.967 402.109 101.498C401.914 101.01 401.65 100.521 401.318 100.033C401.104 100.248 400.762 100.443 400.293 100.619C399.824 100.795 399.365 100.941 398.916 101.059C398.916 101.098 398.926 101.117 398.945 101.117C398.965 101.117 398.975 101.137 398.975 101.176L399.033 101.41L398.857 101.674C398.193 102.748 397.656 103.852 397.246 104.984C396.855 106.117 396.572 107.289 396.396 108.5C397.686 108.109 398.955 107.855 400.205 107.738C401.475 107.602 402.666 107.533 403.779 107.533ZM407.09 91.2148C407.051 91.3711 406.963 91.498 406.826 91.5957C406.709 91.6738 406.592 91.7129 406.475 91.7129C406.436 91.7129 406.396 91.7031 406.357 91.6836C406.318 91.6836 406.27 91.6836 406.211 91.6836C406.172 91.6641 406.123 91.6543 406.064 91.6543C405.674 91.6543 405.127 91.7422 404.424 91.918C403.721 92.0742 403.008 92.4258 402.285 92.9727C402.246 92.9727 402.217 92.9824 402.197 93.002C402.178 93.0215 402.148 93.0312 402.109 93.0312C402.93 94.9648 403.545 96.8008 403.955 98.5391H404.131C405.83 98.5391 407.471 98.2949 409.053 97.8066C408.779 96.791 408.584 95.7266 408.467 94.6133C408.35 93.5 408.291 92.3281 408.291 91.0977C406.572 87.9531 405.713 84.6133 405.713 81.0781C405.713 80.9219 405.723 80.7656 405.742 80.6094C405.762 80.4336 405.771 80.248 405.771 80.0527C405.713 80.0137 405.557 79.9844 405.303 79.9648C405.068 79.9453 404.785 79.9355 404.453 79.9355C404.199 79.9355 403.955 79.9355 403.721 79.9355C403.486 79.9355 403.242 79.9551 402.988 79.9941C402.363 81.2832 401.904 82.5625 401.611 83.832C401.338 85.1016 401.201 86.3809 401.201 87.6699C401.201 87.9238 401.201 88.168 401.201 88.4023C401.201 88.6367 401.221 88.8711 401.26 89.1055L401.318 89.3105L401.201 89.4863C401.182 89.5254 401.172 89.5449 401.172 89.5449H401.143C401.26 89.9746 401.387 90.4238 401.523 90.8926C401.66 91.3613 401.729 91.6348 401.729 91.7129C402.471 91.2246 403.174 90.9121 403.838 90.7754C404.521 90.6387 405.098 90.5703 405.566 90.5703C406.27 90.5703 406.699 90.6191 406.855 90.7168C407.012 90.7949 407.09 90.9414 407.09 91.1562V91.2148ZM405.889 108.09C406.045 108.832 406.152 109.574 406.211 110.316C406.27 111.039 406.299 111.771 406.299 112.514V113.773C406.533 113.891 406.855 113.998 407.266 114.096C407.676 114.174 408.154 114.213 408.701 114.213C409.326 114.213 409.922 114.145 410.488 114.008C411.055 113.852 411.562 113.676 412.012 113.48C412.461 113.285 412.842 113.08 413.154 112.865C413.467 112.65 413.701 112.475 413.857 112.338C413.35 111.439 412.9 110.531 412.51 109.613C412.119 108.676 411.787 107.729 411.514 106.771C410.518 106.83 409.551 106.967 408.613 107.182C407.676 107.396 406.768 107.699 405.889 108.09ZM400.117 91.8301C399.668 93.002 399.336 94.1641 399.121 95.3164C398.906 96.4688 398.799 97.6016 398.799 98.7148V99.5059C399.639 99.2129 400.439 98.8711 401.201 98.4805L401.67 98.3633C401.807 98.4023 401.943 98.4316 402.08 98.4512C402.217 98.4707 402.344 98.4805 402.461 98.4805C402.246 97.6406 401.973 96.791 401.641 95.9316C401.328 95.0527 400.957 94.1445 400.527 93.207L400.117 91.8301Z" fill="black"/>
<path d="M138.14 118.74C138.14 117.26 138.48 116 139.16 114.96C139.88 113.88 140.88 112.96 142.16 112.2C143.44 111.4 144.96 110.74 146.72 110.22C148.52 109.66 150.5 109.18 152.66 108.78C153.58 108.62 154.32 108.5 154.88 108.42C155.48 108.34 155.94 108.2 156.26 108C156.58 107.76 156.8 107.38 156.92 106.86C157.04 106.3 157.1 105.44 157.1 104.28C157.1 103.64 157.04 103.04 156.92 102.48C156.8 101.92 156.58 101.42 156.26 100.98C155.94 100.54 155.5 100.2 154.94 99.96C154.38 99.68 153.64 99.54 152.72 99.54C152.04 99.54 151.52 99.68 151.16 99.96C150.8 100.24 150.52 100.56 150.32 100.92C150.16 101.28 150.06 101.66 150.02 102.06C149.98 102.42 149.96 102.7 149.96 102.9C149.96 103.34 150.04 103.64 150.2 103.8C150.4 103.96 150.5 104.26 150.5 104.7C150.5 105.1 150.38 105.42 150.14 105.66C149.9 105.86 149.6 106.02 149.24 106.14C148.88 106.22 148.5 106.28 148.1 106.32C147.7 106.32 147.32 106.32 146.96 106.32C146.6 106.32 146.18 106.38 145.7 106.5C145.26 106.62 144.82 106.74 144.38 106.86C143.94 106.98 143.54 107.1 143.18 107.22C142.82 107.34 142.56 107.4 142.4 107.4C142.04 107.4 141.76 107.18 141.56 106.74C141.4 106.3 141.32 105.9 141.32 105.54C141.32 105.14 141.46 104.62 141.74 103.98C142.02 103.34 142.36 102.7 142.76 102.06C143.16 101.38 143.58 100.76 144.02 100.2C144.46 99.64 144.84 99.24 145.16 99C146.4 98.08 147.54 97.34 148.58 96.78C149.62 96.18 150.9 95.88 152.42 95.88C153.1 95.88 153.84 95.92 154.64 96C155.44 96.08 156.24 96.24 157.04 96.48C157.88 96.68 158.68 96.96 159.44 97.32C160.2 97.68 160.88 98.12 161.48 98.64C162.08 99.2 162.56 99.82 162.92 100.5C163.32 101.18 163.62 101.9 163.82 102.66C164.06 103.42 164.22 104.16 164.3 104.88C164.38 105.6 164.42 106.26 164.42 106.86C164.42 107.94 164.28 109.04 164 110.16C163.72 111.28 163.58 112.58 163.58 114.06C163.58 114.66 163.66 115.32 163.82 116.04C164.02 116.72 164.26 117.38 164.54 118.02C164.86 118.66 165.22 119.2 165.62 119.64C166.02 120.04 166.44 120.24 166.88 120.24C167.12 120.24 167.34 120.16 167.54 120C167.78 119.84 168 119.76 168.2 119.76C168.68 119.76 169 119.88 169.16 120.12C169.36 120.36 169.46 120.66 169.46 121.02C169.46 121.34 169.34 121.72 169.1 122.16C168.86 122.6 168.5 123.02 168.02 123.42C167.54 123.82 166.96 124.16 166.28 124.44C165.6 124.76 164.84 124.92 164 124.92C162.84 124.92 161.98 124.84 161.42 124.68C160.86 124.52 160.22 124.22 159.5 123.78C159.34 123.66 159.1 123.44 158.78 123.12C158.46 122.84 158.14 122.54 157.82 122.22C157.5 121.9 157.2 121.6 156.92 121.32C156.68 121.04 156.54 120.9 156.5 120.9C155.18 122.5 153.62 123.72 151.82 124.56C150.06 125.4 148.18 125.82 146.18 125.82C144.9 125.82 143.76 125.56 142.76 125.04C141.76 124.56 140.92 123.94 140.24 123.18C139.56 122.46 139.04 121.7 138.68 120.9C138.32 120.06 138.14 119.34 138.14 118.74ZM140.3 118.26C140.3 118.98 140.48 119.64 140.84 120.24C141.24 120.84 141.72 121.36 142.28 121.8C142.84 122.2 143.44 122.52 144.08 122.76C144.76 122.96 145.38 123.06 145.94 123.06C146.38 123.06 146.78 122.98 147.14 122.82C146.74 121.9 146.38 120.96 146.06 120C145.78 119 145.64 117.9 145.64 116.7C145.64 115.78 145.8 114.92 146.12 114.12C146.48 113.28 146.94 112.46 147.5 111.66C146.74 112.02 145.94 112.42 145.1 112.86C144.26 113.26 143.48 113.72 142.76 114.24C142.04 114.76 141.44 115.36 140.96 116.04C140.52 116.68 140.3 117.42 140.3 118.26ZM148.1 116.34C148.1 116.66 148.12 117.14 148.16 117.78C148.2 118.38 148.28 119 148.4 119.64C148.56 120.24 148.76 120.8 149 121.32C149.24 121.8 149.56 122.06 149.96 122.1C150.44 122.1 150.94 122 151.46 121.8C151.98 121.6 152.46 121.32 152.9 120.96C153.38 120.6 153.76 120.2 154.04 119.76C154.36 119.28 154.54 118.78 154.58 118.26L155.3 110.76C154.46 110.76 153.6 110.88 152.72 111.12C151.88 111.32 151.12 111.64 150.44 112.08C149.76 112.52 149.2 113.1 148.76 113.82C148.32 114.54 148.1 115.38 148.1 116.34ZM159.8 105.12C159.8 106.04 159.68 106.86 159.44 107.58C159.24 108.26 159 108.94 158.72 109.62C158.48 110.26 158.24 110.94 158 111.66C157.8 112.38 157.7 113.22 157.7 114.18C157.7 115.22 157.8 116.22 158 117.18C158.24 118.14 158.62 119 159.14 119.76C159.7 120.48 160.4 121.08 161.24 121.56C162.12 122 163.2 122.22 164.48 122.22C163.2 120.74 162.34 119.2 161.9 117.6C161.46 115.96 161.24 114.26 161.24 112.5C161.24 111.78 161.28 111.16 161.36 110.64C161.48 110.08 161.6 109.54 161.72 109.02C161.88 108.5 162 107.96 162.08 107.4C162.2 106.84 162.26 106.16 162.26 105.36C162.26 104.8 162.14 104.22 161.9 103.62C161.7 103.02 161.4 102.46 161 101.94C160.64 101.42 160.22 101 159.74 100.68C159.26 100.32 158.76 100.1 158.24 100.02C158.84 100.94 159.24 101.8 159.44 102.6C159.68 103.36 159.8 104.2 159.8 105.12ZM147.98 99.9C147.5 99.94 147 100.14 146.48 100.5C146 100.82 145.56 101.24 145.16 101.76C144.8 102.28 144.48 102.84 144.2 103.44C143.96 104.04 143.84 104.6 143.84 105.12C144.04 104.92 144.46 104.8 145.1 104.76C145.74 104.68 146.34 104.64 146.9 104.64C147.18 104.64 147.42 104.64 147.62 104.64C147.86 104.64 148.04 104.66 148.16 104.7C148 104.26 147.92 103.54 147.92 102.54C147.92 102.1 147.92 101.66 147.92 101.22C147.96 100.74 147.98 100.3 147.98 99.9Z" fill="black"/>
<defs>
<linearGradient id="paint0_linear_410_5" x1="152" y1="83" x2="152" y2="143" gradientUnits="userSpaceOnUse">
<stop stop-color="#00046B"/>
<stop offset="0.570833" stop-color="#1662D5" stop-opacity="0.491667"/>
<stop offset="1" stop-color="white" stop-opacity="0"/>
</linearGradient>
<linearGradient id="paint1_linear_410_5" x1="230" y1="51" x2="230" y2="131" gradientUnits="userSpaceOnUse">
<stop stop-color="#006B11"/>
<stop offset="0.570833" stop-color="#81D516" stop-opacity="0.491667"/>
<stop offset="1" stop-color="white" stop-opacity="0"/>
</linearGradient>
<linearGradient id="paint2_linear_410_5" x1="534.5" y1="72" x2="534.5" y2="127" gradientUnits="userSpaceOnUse">
<stop stop-color="#353535"/>
<stop offset="0.570833" stop-color="#9F9F9F" stop-opacity="0.491667"/>
<stop offset="1" stop-color="white" stop-opacity="0"/>
</linearGradient>
<linearGradient id="paint3_linear_410_5" x1="320" y1="4" x2="320" y2="104" gradientUnits="userSpaceOnUse">
<stop stop-color="#6B4D00"/>
<stop offset="0.570833" stop-color="#D1D516" stop-opacity="0.491667"/>
<stop offset="1" stop-color="white" stop-opacity="0"/>
</linearGradient>
<linearGradient id="paint4_linear_410_5" x1="398.5" y1="62" x2="398.5" y2="127" gradientUnits="userSpaceOnUse">
<stop stop-color="#3C006B"/>
<stop offset="0.570833" stop-color="#D516C1" stop-opacity="0.491667"/>
<stop offset="1" stop-color="white" stop-opacity="0"/>
</linearGradient>
<linearGradient id="paint5_linear_410_5" x1="471.5" y1="32" x2="471.5" y2="107" gradientUnits="userSpaceOnUse">
<stop stop-color="#6B2000"/>
<stop offset="0.570833" stop-color="#D57D16" stop-opacity="0.491667"/>
<stop offset="1" stop-color="white" stop-opacity="0"/>
</linearGradient>
<linearGradient id="paint6_linear_410_5" x1="63.5" y1="6" x2="63.5" y2="131" gradientUnits="userSpaceOnUse">
<stop stop-color="#6B0000"/>
<stop offset="0.570833" stop-color="#D51666" stop-opacity="0.491667"/>
<stop offset="1" stop-color="white" stop-opacity="0"/>
</linearGradient>
</defs>
</svg>
